<?xml version="1.0" standalone="no"?>
<!DOCTYPE svg PUBLIC "-//W3C//DTD SVG 20010904//EN"
 "http://www.w3.org/TR/2001/REC-SVG-20010904/DTD/svg10.dtd">
<svg version="1.0" xmlns="http://www.w3.org/2000/svg"
 width="2428.000000pt" height="2428.000000pt" viewBox="0 0 2428.000000 2428.000000"
 preserveAspectRatio="xMidYMid meet">
<metadata>
Created by potrace 1.14, written by Peter Selinger 2001-2017
</metadata>
<g transform="translate(0.000000,2428.000000) scale(0.100000,-0.100000)"
fill="#000000" stroke="none">
<path d="M140 21506 l0 -2776 198 -1 c428 -1 1016 -21 1272 -44 88 -8 176 -15
234 -20 68 -5 174 -14 231 -20 22 -2 87 -9 145 -15 105 -11 149 -16 225 -25
22 -3 60 -7 85 -10 53 -6 194 -24 230 -30 14 -2 48 -7 75 -10 28 -3 77 -10
110 -16 33 -5 74 -11 90 -13 28 -4 164 -25 260 -41 22 -4 49 -8 60 -10 44 -6
376 -67 465 -85 52 -11 106 -21 120 -24 14 -2 57 -11 95 -20 39 -8 82 -17 95
-20 14 -2 45 -9 70 -15 25 -5 57 -12 72 -15 63 -11 658 -156 803 -196 44 -12
87 -23 95 -25 8 -2 110 -30 225 -64 116 -33 228 -66 250 -72 22 -6 47 -14 55
-17 8 -3 17 -6 20 -7 329 -99 1092 -361 1227 -421 17 -8 34 -14 37 -14 6 0
326 -125 371 -145 17 -7 68 -29 115 -48 117 -48 351 -148 433 -186 37 -17 70
-31 72 -31 3 0 42 -18 87 -39 46 -21 117 -55 158 -74 177 -82 287 -135 485
-234 212 -106 455 -231 510 -263 17 -10 75 -41 130 -70 55 -29 117 -64 137
-77 21 -13 39 -23 41 -23 2 0 59 -32 128 -71 68 -40 138 -79 154 -89 260 -148
771 -469 1110 -698 291 -197 829 -585 995 -719 12 -10 231 -183 290 -229 39
-31 516 -428 520 -433 3 -4 59 -54 125 -111 66 -58 144 -128 175 -156 30 -29
67 -62 81 -75 353 -317 864 -830 1225 -1229 27 -30 54 -59 59 -66 12 -13 116
-131 142 -160 10 -12 43 -49 73 -84 30 -35 74 -86 98 -114 24 -28 51 -60 61
-71 9 -11 37 -45 61 -75 25 -30 48 -57 51 -60 25 -21 395 -492 553 -705 53
-71 102 -137 109 -145 6 -9 32 -45 57 -80 24 -36 48 -69 53 -75 4 -5 30 -41
57 -80 27 -38 53 -74 57 -80 5 -5 85 -125 179 -265 260 -389 499 -775 777
-1260 385 -672 791 -1518 1092 -2275 37 -93 73 -183 80 -200 7 -16 47 -124 90
-240 42 -115 81 -219 85 -230 14 -30 203 -602 245 -740 63 -202 127 -419 132
-445 3 -14 16 -61 28 -105 22 -72 82 -298 90 -335 2 -8 19 -78 39 -155 19 -77
37 -151 39 -165 3 -14 10 -44 16 -67 17 -61 110 -496 146 -683 10 -53 38 -198
40 -215 2 -11 8 -47 14 -80 6 -33 14 -76 17 -95 2 -19 9 -57 14 -85 5 -27 12
-68 15 -90 3 -22 12 -80 20 -130 8 -49 17 -108 20 -130 47 -330 59 -421 70
-530 4 -33 8 -71 10 -85 2 -14 6 -54 10 -90 4 -36 8 -76 10 -90 2 -14 7 -59
10 -100 4 -41 8 -91 10 -110 2 -19 6 -73 10 -120 4 -47 8 -101 10 -120 5 -50
14 -171 20 -270 3 -47 7 -121 10 -165 13 -208 22 -487 26 -787 l2 -208 2504 0
2505 0 -7 428 c-3 235 -8 468 -10 517 -8 201 -16 374 -20 445 -2 41 -6 122
-10 180 -3 58 -7 125 -10 150 -3 25 -7 86 -10 135 -3 50 -7 108 -10 130 -2 22
-7 76 -10 120 -4 44 -9 98 -11 120 -2 22 -6 74 -9 115 -4 41 -8 86 -10 100 -2
14 -6 54 -10 90 -3 36 -7 81 -10 100 -2 19 -7 60 -10 90 -3 30 -10 89 -15 130
-5 41 -12 100 -15 130 -3 30 -8 66 -10 80 -4 23 -14 102 -31 235 -3 28 -7 57
-9 65 -1 8 -6 40 -10 70 -4 30 -9 64 -11 75 -3 11 -7 38 -10 60 -2 22 -6 51
-9 65 -2 14 -6 45 -10 70 -16 106 -62 388 -69 421 -3 13 -8 40 -11 59 -7 52
-21 132 -45 255 -12 61 -23 126 -26 145 -3 19 -9 51 -14 70 -5 19 -12 51 -15
70 -3 19 -17 89 -31 155 -14 66 -27 129 -29 140 -2 11 -6 31 -9 45 -10 43 -14
62 -37 165 -34 157 -45 206 -53 240 -2 6 -6 21 -9 35 -4 14 -18 75 -32 135
-106 451 -269 1047 -416 1525 -95 307 -354 1079 -388 1155 -5 11 -23 61 -41
110 -50 139 -78 214 -225 585 -136 343 -144 364 -183 450 -11 25 -38 90 -61
145 -24 55 -52 120 -63 145 -11 25 -36 81 -55 124 -40 93 -47 109 -107 240
-25 54 -46 100 -46 101 0 2 -30 65 -66 141 -36 77 -84 177 -106 224 -172 364
-524 1038 -747 1433 -61 109 -108 190 -216 372 -64 110 -126 215 -136 233 -10
18 -60 99 -110 180 -51 81 -99 159 -108 174 -93 156 -483 746 -684 1033 -161
229 -178 253 -194 274 -6 9 -69 95 -140 191 -150 205 -306 412 -418 554 -125
159 -398 500 -405 506 -3 3 -37 43 -75 90 -38 47 -72 87 -75 90 -4 4 -46 53
-131 154 -13 16 -28 34 -34 40 -5 6 -37 43 -70 81 -33 39 -76 88 -96 110 -20
22 -76 85 -124 140 -95 108 -228 255 -341 374 -39 42 -97 105 -130 140 -86 93
-740 749 -865 866 -223 211 -543 504 -669 611 -25 22 -61 53 -80 70 -38 34
-242 209 -275 235 -11 9 -51 43 -90 76 -177 149 -496 409 -695 566 -143 113
-507 390 -635 483 -64 46 -333 239 -405 290 -97 70 -305 211 -388 266 -31 21
-62 41 -67 45 -26 20 -311 205 -490 318 -148 94 -575 355 -581 355 -1 0 -39
23 -84 50 -45 28 -83 50 -84 50 -2 0 -54 29 -115 65 -62 36 -138 79 -169 97
-31 17 -111 61 -177 98 -506 282 -1199 628 -1795 895 -390 176 -1250 527
-1445 591 -22 7 -65 22 -95 34 -30 12 -107 39 -170 61 -63 23 -124 44 -135 49
-23 9 -53 20 -270 93 -227 78 -461 153 -745 239 -174 52 -682 197 -714 204
-10 2 -33 8 -50 13 -70 23 -873 219 -966 236 -14 3 -34 7 -45 9 -11 3 -85 19
-165 36 -80 17 -156 34 -170 36 -14 3 -59 12 -100 20 -41 9 -86 18 -100 20
-14 2 -48 9 -76 15 -28 5 -64 12 -80 15 -16 3 -90 16 -164 30 -74 14 -148 27
-165 29 -16 3 -65 11 -110 19 -90 17 -132 24 -190 32 -22 3 -78 12 -125 19
-47 8 -116 19 -155 24 -38 6 -86 13 -105 15 -161 23 -261 37 -295 41 -100 12
-131 16 -145 20 -8 2 -46 6 -85 10 -38 3 -83 8 -100 10 -39 6 -115 15 -174 20
-115 12 -148 16 -181 20 -19 2 -69 7 -110 10 -41 4 -86 8 -100 10 -14 2 -61 6
-105 10 -44 3 -107 8 -140 10 -58 5 -114 9 -255 20 -60 4 -123 8 -315 20 -278
17 -456 22 -932 30 l-413 7 0 -2776z"/>
<path d="M140 13168 l0 -2338 183 -1 c275 -1 465 -9 767 -33 78 -6 133 -12
215 -21 36 -4 124 -13 181 -19 43 -5 125 -16 159 -22 11 -2 40 -7 65 -10 49
-6 377 -60 425 -69 17 -4 62 -13 100 -20 39 -8 81 -17 95 -20 14 -3 39 -8 55
-11 198 -36 660 -157 986 -259 301 -94 773 -269 977 -361 29 -13 55 -24 59
-24 3 0 29 -11 57 -24 28 -14 105 -49 171 -79 446 -202 1044 -530 1385 -757 8
-6 87 -58 174 -116 273 -181 571 -402 819 -606 59 -49 117 -97 129 -106 29
-24 259 -224 278 -242 9 -8 51 -46 94 -85 159 -143 533 -521 701 -710 39 -43
79 -88 90 -101 69 -76 266 -313 352 -424 192 -245 423 -569 569 -798 32 -51
66 -104 74 -117 42 -65 230 -385 241 -410 5 -11 14 -27 19 -35 64 -94 358
-684 469 -940 40 -91 76 -174 81 -185 44 -93 203 -516 279 -740 80 -240 184
-583 206 -685 2 -8 16 -60 30 -115 15 -55 29 -110 31 -123 3 -13 18 -83 35
-155 35 -152 61 -277 88 -427 11 -58 22 -121 26 -140 7 -40 12 -68 20 -125 3
-22 10 -65 15 -95 5 -30 11 -73 14 -95 17 -131 28 -213 31 -235 2 -14 6 -52
10 -85 3 -33 8 -78 10 -100 3 -22 7 -67 10 -100 5 -62 12 -146 20 -228 2 -26
7 -110 10 -185 4 -75 8 -171 10 -212 2 -41 4 -144 6 -227 l2 -153 2347 0 2347
0 -3 243 c-2 240 -11 512 -19 637 -2 36 -7 103 -10 150 -14 223 -17 251 -30
390 -3 30 -7 75 -9 100 -3 25 -7 70 -11 100 -3 30 -7 71 -9 90 -23 224 -90
687 -141 975 -81 449 -223 1073 -320 1405 -7 25 -20 70 -28 100 -37 129 -132
436 -179 580 -50 155 -228 658 -253 715 -7 17 -24 59 -38 95 -57 148 -230 566
-247 599 -5 9 -15 32 -24 52 -156 361 -401 854 -626 1259 -54 96 -110 197
-125 224 -39 70 -274 458 -330 546 -27 41 -69 107 -93 145 -188 292 -458 678
-673 962 -106 139 -318 408 -365 463 -12 14 -70 84 -130 155 -108 130 -206
244 -276 320 -20 22 -46 51 -58 65 -265 308 -861 898 -1235 1224 -55 48 -113
100 -130 115 -113 104 -599 497 -835 674 -85 64 -159 121 -165 125 -103 82
-776 540 -922 628 -18 10 -130 78 -250 151 -708 427 -1515 829 -2253 1119 -36
14 -74 30 -85 35 -33 15 -202 78 -335 125 -69 25 -134 49 -145 54 -75 34 -793
262 -1010 320 -148 40 -650 169 -675 174 -14 2 -65 13 -115 25 -49 11 -126 27
-170 36 -44 10 -87 18 -95 20 -8 2 -51 10 -95 19 -44 9 -102 21 -130 26 -57
12 -49 10 -285 51 -162 27 -373 60 -480 74 -25 3 -56 8 -70 10 -14 2 -52 7
-85 11 -33 3 -68 8 -77 9 -9 2 -48 7 -85 10 -37 4 -78 8 -91 10 -13 2 -53 6
-90 10 -37 3 -87 8 -112 11 -24 3 -67 7 -95 9 -27 2 -79 6 -115 10 -131 11
-170 14 -282 20 -62 4 -131 8 -153 10 -63 5 -482 17 -677 19 l-178 2 0 -2338z"/>
<path d="M3049 6226 c-2 -2 -42 -6 -89 -10 -47 -3 -94 -8 -105 -10 -19 -3 -98
-15 -140 -21 -45 -7 -255 -56 -320 -75 -38 -12 -90 -27 -115 -34 -199 -57
-532 -220 -755 -369 -66 -44 -195 -140 -235 -173 -190 -161 -351 -324 -472
-479 -43 -55 -82 -104 -86 -110 -32 -40 -169 -258 -213 -340 -82 -151 -202
-427 -225 -515 -2 -8 -15 -53 -29 -100 -39 -129 -79 -319 -100 -475 -21 -161
-27 -519 -12 -684 16 -164 31 -248 92 -516 9 -37 77 -250 90 -280 7 -16 19
-46 26 -65 11 -31 39 -93 97 -220 28 -62 161 -289 215 -368 50 -74 163 -223
223 -293 61 -71 283 -288 364 -356 238 -198 490 -350 810 -491 112 -49 433
-146 553 -167 18 -4 50 -10 72 -15 22 -5 65 -12 95 -16 30 -3 66 -8 80 -10
142 -20 468 -26 650 -12 117 9 310 40 450 73 104 24 386 110 405 124 6 4 33
16 60 26 67 24 325 153 411 206 220 134 380 257 559 429 334 321 598 720 758
1145 31 83 113 354 122 402 3 16 7 39 10 53 14 59 44 261 51 330 3 41 8 91 10
110 5 47 5 358 0 395 -2 17 -7 70 -11 120 -4 49 -8 92 -10 95 -2 3 -6 29 -9
58 -3 30 -8 57 -10 60 -2 4 -7 27 -10 52 -3 25 -18 92 -32 150 -14 58 -27 112
-29 120 -10 42 -78 236 -110 315 -41 100 -148 318 -200 408 -79 134 -251 373
-341 472 -183 202 -343 345 -586 521 -103 75 -419 250 -528 293 -19 7 -75 29
-125 48 -99 38 -293 100 -340 108 -16 3 -43 10 -60 15 -16 5 -57 14 -90 20
-33 6 -69 13 -80 15 -37 7 -100 16 -150 21 -27 3 -61 8 -75 11 -28 6 -505 15
-511 9z"/>
</g>
</svg>
